<?xml version="1.0" encoding="utf-8"?>
<svg viewBox="72.5529 37.7859 357.4815 402.7596" xmlns="http://www.w3.org/2000/svg">
  <defs>
    <clipPath clipPathUnits="userSpaceOnUse" id="clipPath18">
      <path d="M 0,500 H 500 V 0 H 0 Z" id="path16"/>
    </clipPath>
  </defs>
  <path d="M 0,0 H 500 V 500 H 0 Z" style="fill:#ffffff;fill-opacity:1;fill-rule:nonzero;stroke:none" id="path10" transform="matrix(0.7149629592895508, 0, 0, -0.8055190443992615, 72.55290330280218, 440.54541672088817)"/>
  <g id="g12" transform="matrix(0.7149629592895508, 0, 0, -0.8055190443992615, 72.55290330280218, 440.54541672088817)">
    <g id="g14" clip-path="url(#clipPath18)">
      <g id="g20" transform="translate(324.803,82.3958)">
        <path d="m 0,0 c -6.961,-4.739 -16.446,-1.509 -23.798,2.596 -7.352,4.105 -15.208,9.174 -23.491,7.661 -4.806,-0.878 -8.898,-3.88 -13.158,-6.272 -4.26,-2.391 -9.353,-4.251 -13.961,-2.627 -2.323,0.819 -4.268,2.448 -6.495,3.502 -7.404,3.504 -17.431,-1.011 -19.715,-8.878 -2.771,-9.544 5.02,-19.107 13.727,-23.899 3.767,-2.073 8.048,-3.684 12.295,-3.016 4.973,0.782 8.891,4.471 13.152,7.152 4.261,2.681 10.205,4.28 14.057,1.038 2,-1.684 2.954,-4.325 4.819,-6.157 3.912,-3.842 10.273,-3.004 15.642,-1.89 5.891,1.221 11.929,2.511 16.99,5.763 5.061,3.253 9.008,8.947 8.44,14.936" style="fill:#ffe27e;fill-opacity:1;fill-rule:nonzero;stroke:none" id="path22"/>
      </g>
      <g id="g24" transform="translate(277.0028,51.7158)">
        <path d="M 0,0 C -1.148,0.796 -2.227,1.703 -3.47,2.34 -5.027,3.137 -6.813,3.48 -8.555,3.315 -8.906,3.282 -9.262,3.226 -9.577,3.067 c -0.374,-0.19 -0.664,-0.513 -0.895,-0.862 -1.417,-2.131 -0.729,-5.166 1.004,-7.049 1.733,-1.882 4.261,-2.817 6.753,-3.396 3.325,-0.77 18.653,-2.48 19.643,2.409 0.639,3.154 -4.738,1.868 -6.393,2.029 C 6.781,-3.437 3.106,-2.153 0,0" style="fill:#ffe27e;fill-opacity:1;fill-rule:nonzero;stroke:none" id="path26"/>
      </g>
      <g id="g28" transform="translate(178.5627,438.0121)">
        <path d="M 0,0 C 0.933,1.391 1.993,2.649 3.128,3.827 2.699,3.836 2.312,3.93 1.968,4.089 1.082,4.225 0.185,4.417 -0.721,4.669 -2.504,1.303 -3.199,-2.753 -3.159,-6.872 -2.535,-4.536 -1.495,-2.23 0,0" style="fill:#e9e8e7;fill-opacity:1;fill-rule:nonzero;stroke:none" id="path30"/>
      </g>
      <g id="g32" transform="translate(246.2098,309.0653)">
        <path d="m 0,0 c -9.719,8.438 -20.228,17.711 -22.563,30.368 -0.962,5.21 -0.42,10.566 0.124,15.836 0.929,8.992 1.858,17.983 2.787,26.974 0.178,1.716 0.395,3.536 1.469,4.887 2.24,2.816 6.568,2.065 10.167,2.11 3.598,0.045 8.089,3.19 6.281,6.302 -0.572,0.986 -1.649,1.567 -2.725,1.943 -5.941,2.077 -12.327,-0.713 -18.35,-2.542 -0.897,-0.273 -1.861,-0.525 -2.761,-0.258 -1.103,0.328 -1.834,1.347 -2.478,2.301 -5.002,7.4 -10.239,15.816 -8.681,24.611 1.659,9.37 10.322,15.552 16.156,23.069 1.077,1.388 2.095,2.907 2.368,4.642 0.681,4.315 -3.711,8.079 -8.067,8.422 -4.355,0.344 -8.504,-1.691 -12.398,-3.673 -0.754,-0.384 -1.526,-0.687 -2.306,-0.957 -2.874,-3.217 -6.16,-6.06 -9.794,-8.083 -4.416,-3.077 -9.246,-6.153 -12.157,-10.738 -3.526,-5.553 -3.486,-11.843 -0.28,-17.476 3.612,-6.345 9.431,-10.899 14.55,-16.014 0.036,-0.119 0.08,-0.234 0.114,-0.354 0.998,-3.574 0.835,-7.326 0.541,-10.987 -0.3,-3.741 -0.79,-7.492 -0.592,-11.252 0.207,-3.95 1.328,-7.577 2.962,-11.157 1.542,-3.378 3.358,-6.617 4.672,-10.098 1.258,-3.332 2.216,-6.801 2.857,-10.305 0.649,-3.549 0.857,-7.198 0.582,-10.804 -1.761,-4.577 -4.502,-8.814 -8.539,-12.739 C -54.7,5.63 -66.144,0.011 -76.566,-5.811 c -12.038,-6.724 -24.801,-12.611 -35.371,-21.619 -11.047,-9.414 -18.464,-22.985 -25.44,-35.528 -7.291,-13.108 -11.985,-26.748 -17.419,-40.625 -3.694,-9.432 -8.13,-18.627 -10.575,-28.502 -0.961,-3.88 -2.259,-9.317 -0.421,-13.157 1.841,-3.848 7.32,-4.201 11.063,-4.29 11.277,-0.268 22.672,3.378 33.474,6.185 6.839,1.778 14.324,4.175 21.678,4.729 0.158,-0.104 0.34,-0.186 0.575,-0.201 2.69,-0.178 5.383,-0.382 8.074,-0.53 2.345,-4.517 1.68,-9.715 0.573,-14.542 -1.326,-5.783 -2.93,-11.399 -3.396,-17.344 -0.488,-6.213 -0.167,-12.448 -0.122,-18.67 0.047,-6.42 -0.224,-12.841 -0.817,-19.234 -0.594,-6.389 -1.517,-12.742 -2.76,-19.038 -0.606,-3.07 -1.287,-6.126 -2.043,-9.163 -0.609,-2.451 -1.323,-4.878 -1.761,-7.369 -0.756,-4.302 -1.056,-9.355 1.735,-13.036 3.53,-4.659 9.528,-4.225 14.712,-3.535 6.312,0.84 12.499,2.44 18.401,4.838 2.958,1.202 5.851,2.559 8.644,4.107 0.466,0.259 0.93,0.527 1.395,0.792 5.211,2.045 10.199,4.553 14.393,8.214 0.71,0.619 1.456,1.457 1.248,2.375 -0.164,0.726 -0.865,1.181 -1.506,1.558 -8.177,4.808 -16.354,9.616 -24.531,14.423 -2.015,1.185 -4.085,2.418 -5.483,4.29 -1.83,2.451 -2.259,5.641 -2.628,8.677 -1.469,12.091 -4.483,21.716 -3.949,33.884 0.194,4.425 0.388,8.85 0.582,13.275 0.085,1.944 0.199,3.985 1.228,5.637 2.992,4.805 10.335,2.742 15.359,0.132 -1.008,4.257 -1.253,10.068 2.844,11.601 3.562,1.332 7.146,-2.011 10.935,-2.34 4.055,-0.352 7.716,2.986 9.025,6.839 1.309,3.853 0.782,8.07 0.029,12.069 -1.39,7.385 -3.501,14.634 -6.292,21.611 -1.014,2.533 -2.196,5.136 -4.339,6.824 -1.986,1.564 -4.563,2.15 -7.071,2.467 -9.976,1.26 -20.006,-1.058 -30.005,-2.12 -11.69,-1.242 -23.562,-0.758 -35.113,1.431 3.888,5.29 8.503,10.046 13.675,14.09 2.426,1.897 5.027,3.693 6.754,6.243 2.186,3.229 2.707,7.256 3.783,11.003 3.06,10.656 11.26,19.707 21.563,23.801 -2.611,1.864 -5.222,3.728 -7.832,5.592 14.663,14.636 33.736,24.795 54.064,28.797 -0.335,2.518 -0.67,5.036 -1.004,7.554 8.321,-2.78 16.643,-5.561 24.965,-8.341 3.309,-1.106 7.568,-1.967 9.777,0.734 C 6.911,-7.791 3.348,-2.906 0,0" style="fill:#e9e8e7;fill-opacity:1;fill-rule:nonzero;stroke:none" id="path34"/>
      </g>
      <g id="g36" transform="translate(299.4904,233.8387)">
        <path d="m 0,0 c 2.213,1.803 2.815,4.907 2.996,7.756 0.181,2.849 0.127,5.852 1.511,8.349 1.384,2.496 4.884,4.098 7.165,2.383 1.116,-0.839 1.656,-2.228 2.044,-3.568 1.406,-4.855 1.521,-10.077 0.33,-14.989 -1.077,-4.441 -3.16,-9.283 -1.02,-13.321 3.111,-0.403 6.356,0.322 9,2.01 -2.985,-4.481 -2.243,-10.763 0.833,-15.183 3.076,-4.42 8.075,-7.178 13.236,-8.716 2.6,-0.775 6.043,-2.65 4.952,-5.134 -0.885,-2.015 -3.833,-1.72 -5.75,-2.799 -2.438,-1.373 -2.785,-4.895 -1.696,-7.472 1.089,-2.577 3.196,-4.56 4.848,-6.817 4.916,-6.717 5.541,-16.306 1.54,-23.604 -5.888,6.533 -10.422,14.281 -13.234,22.615 -1.897,5.623 -3.461,12.11 -8.579,15.114 -3.668,2.153 -8.632,2.088 -11.492,5.236 -2.428,2.671 -2.544,6.894 -5.045,9.498 -1.511,1.572 -3.845,2.512 -4.555,4.574 -0.98,2.848 1.348,7.079 -1.333,8.452" style="fill:#e9e8e7;fill-opacity:1;fill-rule:nonzero;stroke:none" id="path38"/>
      </g>
      <g id="g40" transform="translate(456.3843,96.6301)">
        <path d="m 0,0 c -4.329,-1.037 -8.668,-2.027 -13.013,-2.994 -8.59,-1.912 -17.192,-3.766 -25.809,-5.552 -17.336,-3.593 -34.725,-6.975 -52.186,-9.907 -8.132,-1.366 -16.276,-2.664 -24.419,-3.959 0.247,0.46 0.502,0.915 0.746,1.376 0.292,0.231 0.571,0.476 0.855,0.715 15.946,2.603 31.81,5.775 47.682,8.791 16.011,3.043 32.023,6.079 48.032,9.138 4.477,0.855 8.955,1.711 13.433,2.566 3.422,0.654 6.87,1.24 10.286,1.948 C 4.009,0.978 1.907,0.457 0,0 m -126.82,-36.637 c -2.206,-3.23 -4.52,-6.389 -6.948,-9.456 -2.382,-3.009 -4.798,-6.105 -7.561,-8.778 -2.705,-2.615 -5.953,-4.058 -9.597,-4.861 -3.91,-0.862 -7.951,-1.237 -11.927,-1.669 -8.375,-0.91 -16.811,-1.44 -25.238,-1.129 -4.137,0.152 -8.272,0.498 -12.365,1.122 -3.79,0.578 -7.821,1.186 -11.313,2.847 -3.435,1.634 -5.765,4.468 -8.003,7.45 -2.55,3.396 -5.078,6.809 -7.604,10.223 -5.098,6.893 -10.219,13.778 -15.202,20.755 -0.21,0.295 -0.408,0.594 -0.595,0.897 0.69,-0.866 1.606,-1.562 2.551,-2.123 3.479,-2.068 7.518,-3.364 11.421,-4.352 2.841,-0.719 5.726,-1.246 8.621,-1.709 0.067,-0.122 0.132,-0.246 0.2,-0.369 2.781,-5.012 5.802,-10.48 10.339,-14.132 2.295,-1.848 4.902,-3.092 7.848,-3.419 3.197,-0.356 6.549,0.433 9.511,1.602 1.355,0.535 2.685,1.211 3.607,2.375 0.956,1.207 1.273,2.734 1.289,4.246 0.021,2.108 -0.393,4.218 -1.082,6.215 8.664,-0.527 17.351,-0.702 26.029,-0.525 8.303,0.168 16.68,0.476 24.912,1.638 5.813,0.821 11.659,2.213 16.945,4.809 0.266,-0.286 0.684,-0.389 1.094,-0.323 0.06,0.009 0.119,0.019 0.178,0.029 -2.224,-3.876 -4.589,-7.671 -7.11,-11.363 m -116.072,2.461 c -17.281,-1.933 -34.519,-4.271 -51.704,-6.914 -4.812,-0.74 -9.62,-1.511 -14.424,-2.304 3.013,14.472 1.822,29.347 1.749,44.026 -0.037,7.556 0.199,15.176 1.55,22.627 0.684,3.772 1.869,7.405 2.666,11.147 0.78,3.659 0.94,7.338 -0.613,10.82 -1.273,2.853 -4.164,6.075 -3.179,9.42 0.819,2.784 4.068,4.611 6.846,3.755 0.71,-0.219 1.244,0.364 1.319,1.005 0.577,4.934 0.495,9.861 -0.156,14.782 1.166,0.446 2.332,0.892 3.498,1.339 2.395,0.916 4.898,1.707 7.203,2.835 0.992,0.486 1.935,1.133 2.632,2 0.768,0.957 1.187,2.1 1.602,3.241 0.268,0.737 0.535,1.473 0.802,2.21 0.143,-8.52 1.614,-17.01 4.274,-25.107 0.156,-0.476 0.551,-0.777 1.051,-0.799 0.899,-0.041 1.799,-0.081 2.699,-0.121 -1.227,-2.567 -1.46,-5.793 0.833,-7.815 0.937,-0.825 2.087,-1.264 3.213,-1.318 -0.171,-0.335 -0.334,-0.679 -0.403,-1.036 -0.038,-0.201 0.07,-0.373 0.222,-0.448 0.086,-0.225 0.247,-0.422 0.526,-0.545 3.458,-1.518 5.937,-5.961 10.164,-5.316 0.362,0.055 0.698,0.163 1.023,0.292 1.803,-4.29 3.894,-8.455 5.93,-12.638 1.074,-2.208 2.17,-4.405 3.267,-6.602 0.562,-1.125 1.358,-2.782 2.629,-3.187 -0.025,-0.119 -0.05,-0.238 -0.075,-0.358 -0.11,-0.527 0.236,-1.068 0.811,-1.065 1.39,0.007 2.358,-1.115 3.133,-2.141 0.936,-1.24 1.785,-2.557 2.62,-3.866 1.676,-2.626 3.219,-5.336 4.678,-8.088 1.39,-2.62 2.693,-5.282 3.959,-7.962 -3.051,-1.479 -5.936,-3.289 -8.562,-5.472 -2.713,-2.255 -5.664,-5.457 -5.245,-9.276 0.229,-2.097 1.515,-3.755 2.711,-5.41 1.334,-1.847 2.669,-3.694 4.004,-5.539 1.175,-1.625 2.352,-3.249 3.53,-4.871 -2.262,-0.432 -4.523,-0.865 -6.783,-1.301 m -54.573,-10.339 c -0.546,-0.095 -1.093,-0.189 -1.639,-0.284 -2.404,-0.231 -4.811,-0.438 -7.22,-0.624 8.348,1.364 16.708,2.653 25.08,3.858 -5.402,-1.011 -10.808,-2 -16.221,-2.95 M -313.6,61.005 c -0.981,0.155 -1.627,1.731 -1.882,2.493 -0.568,1.698 -0.944,3.489 -1.283,5.25 1.418,0.441 2.831,0.902 4.244,1.366 0.129,-0.396 0.435,-0.712 0.865,-0.734 0.225,-2.913 -0.451,-5.838 -1.944,-8.375 m -4.245,19.748 c 0.046,3.91 0.438,7.812 1.258,11.637 0.73,3.403 1.864,6.838 4.49,9.263 2.731,2.522 6.416,3.74 9.866,4.918 0.458,0.157 0.754,0.822 0.313,1.185 -0.702,0.579 -1.454,1.078 -2.241,1.501 0.002,0.011 0.007,0.02 0.01,0.031 0.029,0.129 0.059,0.258 0.088,0.388 2.161,0.118 4.322,0.238 6.48,0.368 9.691,0.581 19.38,1.212 29.07,1.792 0.431,0.026 0.724,0.26 0.88,0.562 1.665,-0.303 3.321,-1.405 4.569,-2.369 2.462,-1.902 4.67,-4.253 6.821,-6.492 4.476,-4.658 8.806,-9.702 12.279,-15.164 0.882,-1.387 1.611,-2.84 1.897,-4.473 0.305,-1.744 0.201,-3.572 0.208,-5.336 0.013,-3.559 0.002,-7.119 -0.034,-10.678 -0.073,-7.224 -0.253,-14.446 -0.52,-21.665 -0.294,-7.934 -0.713,-15.864 -1.25,-23.785 -0.684,-0.271 -1.424,-0.157 -2.113,0.227 -1.049,0.585 -1.611,1.619 -1.928,2.748 -0.361,1.286 -0.418,2.629 -0.505,3.954 -0.107,1.611 -0.201,3.223 -0.291,4.835 -0.359,6.4 -0.551,12.82 -1.139,19.202 -0.162,1.76 -0.361,3.543 -0.356,5.312 0.006,1.876 0.054,3.749 0.047,5.625 -0.003,1.069 -1.495,1.225 -1.818,0.246 -1.638,-4.954 -3.461,-9.857 -5.526,-14.65 -0.638,-1.481 -1.464,-3.465 -3.118,-4.045 -1.471,-0.516 -2.86,0.39 -3.988,1.256 -1.228,0.944 -2.368,2.036 -3.67,2.878 0.456,0.629 0.795,1.334 1.012,2.084 0.437,0.763 0.716,1.667 0.965,2.374 0.721,2.048 1.477,4.088 2.147,6.154 0.323,0.993 -1.217,1.658 -1.699,0.716 -0.261,-0.509 -0.442,-1.051 -0.709,-1.56 -0.264,-0.504 -0.528,-1.007 -0.793,-1.511 -0.493,-0.94 -0.991,-1.877 -1.49,-2.814 -0.428,-0.806 -0.849,-1.616 -1.25,-2.436 -0.996,-0.493 -2.445,0.019 -3.197,0.917 -1.549,1.85 -0.384,4.619 0.825,6.297 0.516,0.716 -0.189,1.62 -0.947,1.651 -1.256,0.052 -2.512,0.104 -3.768,0.156 -3.179,9.902 -4.368,20.324 -3.681,30.698 0.089,1.351 -1.824,1.443 -2.234,0.302 -0.886,-2.467 -1.772,-4.934 -2.658,-7.402 -0.393,-1.091 -0.713,-2.26 -1.284,-3.276 -0.511,-0.911 -1.297,-1.507 -2.211,-1.983 -2.17,-1.131 -4.611,-1.841 -6.897,-2.704 -2.45,-0.926 -4.9,-1.852 -7.35,-2.777 -2.234,-0.844 -4.469,-1.689 -6.703,-2.533 -0.252,0.389 -0.774,0.623 -1.217,0.475 -1.971,-0.662 -3.954,-1.291 -5.945,-1.9 -0.504,3.241 -0.733,6.522 -0.695,9.801 m -1.558,7.162 c -0.735,-5.348 -0.76,-10.754 -0.054,-16.107 0.065,-0.493 0.141,-0.983 0.216,-1.474 -11.629,-3.44 -23.553,-6.006 -35.536,-7.714 -3.663,-0.522 -7.34,-0.955 -11.023,-1.309 -3.279,-0.314 -6.594,-0.678 -9.893,-0.605 -2.752,0.061 -5.627,0.466 -7.983,1.99 -2.438,1.576 -3.625,4.226 -4.112,7 -0.553,3.146 -0.451,6.586 -0.105,9.753 0.165,1.509 0.496,3.11 1.214,4.458 0.402,-0.346 0.987,-0.433 1.428,0.053 4.679,5.162 10.683,8.775 16.992,11.605 6.755,3.03 13.867,5.352 20.894,7.66 4.264,1.401 8.552,2.569 12.897,3.475 0.924,0.062 1.848,0.124 2.772,0.177 0.342,0.02 0.688,0.215 0.862,0.512 2.553,0.437 5.127,0.79 7.734,1.024 4.884,0.439 9.782,0.743 14.681,1.02 1.59,-0.347 3.114,-0.988 4.465,-1.903 -3.808,-1.178 -7.694,-2.65 -10.42,-5.658 -3.382,-3.732 -4.366,-9.132 -5.029,-13.957 m -53.335,11.546 c 8.185,3.473 17.161,5.145 25.954,6.144 0.042,0.005 0.084,0.009 0.126,0.014 -6.836,-2.144 -13.692,-4.438 -20.302,-7.19 -6.17,-2.568 -12.155,-5.767 -17.127,-10.243 -0.148,0.141 -0.33,0.246 -0.532,0.302 1.466,5.23 7.094,8.942 11.881,10.973 m 71.431,35.856 c 0.059,1.697 0.6,3.35 1.194,4.926 1.154,3.06 2.543,6.039 4.075,8.927 0.198,0.374 0.41,0.74 0.615,1.11 -0.319,-1.264 -0.614,-2.536 -0.924,-3.801 -0.997,-4.083 -2.318,-7.938 -4.96,-11.162 m -32.481,-26.223 c -0.981,-0.197 -1.959,-0.412 -2.933,-0.645 -7.791,-0.592 -15.574,-1.228 -23.243,-2.831 -1.632,-0.341 -3.256,-0.728 -4.867,-1.164 8.104,2.841 16.603,4.549 25.184,5.014 0.03,-0.138 0.118,-0.26 0.275,-0.3 1.76,-0.448 3.414,-0.334 4.972,0.136 0.204,-0.057 0.413,-0.124 0.612,-0.21 m 12.984,1.72 c -3.509,-0.289 -7.015,-0.678 -10.488,-1.265 -0.201,0.294 -0.456,0.541 -0.736,0.763 1.528,0.831 2.955,1.938 4.286,3.103 1.794,1.571 3.49,3.255 5.36,4.737 2.11,1.673 4.393,3.124 6.694,4.515 4.346,2.627 8.914,4.985 12.823,8.262 0.209,-1.217 0.368,-2.419 0.289,-3.692 -0.112,-1.796 -0.545,-3.554 -0.95,-5.301 -0.781,-3.38 -1.563,-6.759 -2.345,-10.138 -4.982,-0.278 -9.963,-0.574 -14.933,-0.984 m 166.944,27.577 c 0.426,2.665 0.859,5.329 1.294,7.992 -0.271,-2.692 -0.684,-5.363 -1.294,-7.992 m 14.611,49.198 c -1.782,-3.716 -3.561,-7.433 -5.337,-11.151 -1.478,2.131 -1.591,5.103 -0.256,7.386 1.213,2.077 3.313,3.301 5.593,3.765 M -190.754,25.664 c -0.017,-1.137 -0.159,-2.312 -0.997,-3.156 -1.383,-1.395 -3.943,-1.478 -5.755,-1.135 -1.142,0.217 -4.84,2.022 -2.849,3.418 0.75,0.525 1.82,0.782 2.688,1.041 1.01,0.301 2.046,0.538 3.097,0.623 1.368,0.111 2.773,-0.006 3.816,-0.791 m -0.918,40.572 c -0.403,-0.533 -0.905,-0.993 -1.54,-1.334 -1.837,-0.987 -3.778,-0.093 -4.339,1.888 -0.508,1.791 0.661,3.329 2.498,3.43 2.437,0.135 3.286,-1.815 3.38,-3.953 0.001,-0.01 0.001,-0.021 0.001,-0.031 m 1.607,41.703 c -1.867,-1.349 -3.61,0.317 -4.436,2.075 -0.204,0.434 -0.427,0.937 -0.528,1.409 -0.034,0.16 -0.068,0.212 -0.092,0.227 0.021,0.013 0.051,0.042 0.1,0.112 0.065,0.093 0.168,0.194 0.251,0.261 0.587,0.465 1.511,0.433 2.188,0.234 1.827,-0.536 2.354,-2.544 2.517,-4.318 m -101.897,79.556 c 0.035,-0.087 0.075,-0.171 0.109,-0.258 0.874,-2.186 1.572,-4.478 1.682,-6.844 0.065,-1.398 -0.09,-2.875 -0.627,-4.169 0.107,3.774 -0.291,7.577 -1.164,11.271 m -70.464,-57.261 c 5.467,9.93 11.976,19.129 18.58,28.32 7.002,9.745 13.988,19.502 20.981,29.253 3.511,4.897 7.026,9.791 10.535,14.691 1.2,1.677 2.725,4.376 4.974,4.752 0.481,0.081 0.921,-0.007 1.33,-0.184 1.386,-1.211 2.71,-2.489 3.962,-3.832 6.091,-7.447 9.46,-17.083 9.254,-26.703 -0.025,-1.179 -0.105,-2.354 -0.231,-3.525 -0.077,-0.724 0.943,-1.333 1.532,-0.879 4.262,3.278 3.902,9.189 2.401,13.82 -1.828,5.642 -4.927,10.949 -8.58,15.595 -0.789,1.004 -1.625,1.967 -2.484,2.909 -0.853,1.073 -1.757,2.106 -2.725,3.064 -0.147,0.146 -0.299,0.283 -0.453,0.416 15.579,6.682 34.555,8.102 46.042,21.895 1.353,1.625 2.427,3.789 4.313,4.878 2.36,1.362 5.238,0.149 7.503,-0.878 0.166,-1.321 0.464,-2.617 0.955,-3.897 -0.461,-2.886 -1.513,-5.742 -2.21,-8.517 -1.089,-4.334 -1.364,-8.958 1.343,-12.782 2.803,-3.96 7.391,-6.597 11.677,-8.666 4.588,-2.215 9.438,-3.817 14.334,-5.196 5.019,-1.414 10.093,-2.63 15.08,-4.156 3.906,-1.195 8.784,-2.948 10.38,-7.116 0.94,-2.457 0.595,-5.197 0.329,-7.747 -0.297,-2.854 -0.538,-5.712 -0.695,-8.577 -0.315,-5.756 -0.331,-11.528 -0.047,-17.286 0.575,-11.644 2.43,-23.141 5.327,-34.427 0.371,-1.445 0.779,-3.212 0.542,-4.78 -0.15,0.425 -0.332,0.84 -0.561,1.236 -1.095,1.894 -3.228,2.919 -5.395,2.499 -0.863,-0.168 -1.67,-0.604 -2.222,-1.294 -0.824,-1.031 -0.593,-1.953 -0.163,-3.111 0.803,-2.163 2.249,-4.401 4.722,-4.742 0.75,-0.104 1.466,-0.005 2.128,0.24 0.122,-5.452 -0.06,-10.932 -0.083,-16.382 -0.013,-3.054 -0.026,-6.108 -0.039,-9.162 -0.012,-2.88 0.082,-5.784 -0.075,-8.66 -0.027,-0.501 -0.078,-1.018 -0.158,-1.534 -0.069,0.13 -0.139,0.259 -0.222,0.383 -2.425,3.665 -8.887,2.402 -9.215,-2.153 -0.151,-2.098 1.067,-4.312 2.982,-5.216 1.735,-0.819 3.681,-0.395 5.203,0.647 0.16,-5.054 0.189,-10.118 0.3,-15.171 0.132,-6.044 0.28,-12.088 0.428,-18.132 0.018,-0.732 0.042,-1.464 0.062,-2.197 -2.88,1.237 -6.787,0.255 -9.556,-0.874 -2.036,-0.83 -3.456,-2.739 -2.102,-4.867 1.293,-2.033 3.806,-2.895 6.096,-3.019 2.204,-0.119 4.736,0.318 6.283,2.038 0.781,0.868 1.17,1.922 1.353,3.046 0.519,0.191 0.906,0.771 0.539,1.385 -0.122,0.204 -0.258,0.385 -0.395,0.564 0.006,1.198 -0.098,2.405 -0.121,3.498 -0.15,6.968 -0.304,13.937 -0.472,20.905 -0.085,3.555 -0.171,7.11 -0.257,10.666 -0.034,1.448 -0.056,2.898 -0.106,4.346 1.223,2.009 1.482,4.474 1.524,6.82 0.061,3.359 0.027,6.722 0.038,10.082 0.022,7.102 0.038,14.205 0.07,21.307 0.005,1.006 0.041,2.056 0.01,3.104 0.568,0.607 1.025,1.328 1.33,2.091 1.215,3.04 -0.005,6.457 -0.746,9.459 -3.236,13.091 -4.837,26.565 -4.787,40.049 0.013,3.431 0.132,6.862 0.36,10.286 0.212,3.187 0.658,6.36 0.845,9.547 0.17,2.894 -0.196,5.857 -1.936,8.262 -1.438,1.988 -3.486,3.417 -5.683,4.46 -0.264,0.126 -0.538,0.234 -0.806,0.353 8.476,5.864 14.695,14.998 17.362,24.919 0.671,2.496 1.099,5.056 1.314,7.632 6.083,-3.101 10.971,-8.149 15.54,-13.124 2.508,-2.731 4.943,-5.532 7.546,-8.176 2.793,-2.837 5.784,-5.456 9.005,-7.799 2.577,-1.874 5.291,-3.553 8.108,-5.038 -2.744,-0.764 -5.229,-2.486 -6.578,-5.007 -1.934,-3.616 -1.355,-8.612 1.9,-11.287 0.527,-0.432 1.479,-0.501 1.829,0.236 1.832,3.871 3.659,7.745 5.485,11.62 2.222,-7.735 5.04,-15.276 8.55,-22.528 1.937,-4.004 4.092,-7.886 6.371,-11.704 2.159,-3.619 4.368,-7.222 6.165,-11.04 1.779,-3.779 3.072,-7.803 3.305,-11.979 -2.455,0.955 -5.031,1.639 -7.62,2.091 -1.431,0.25 -2.877,0.433 -4.325,0.541 -1.365,0.102 -2.806,0.201 -4.132,-0.212 -1.248,-0.389 -2.29,-1.177 -3.271,-2.015 -1.072,-0.917 -2.115,-1.871 -3.153,-2.826 -2.071,-1.907 -4.092,-3.869 -6.06,-5.881 -2.614,-2.672 -5.118,-5.444 -7.534,-8.291 0.149,0.4 0.118,0.869 -0.236,1.276 -0.497,0.57 -0.995,1.141 -1.492,1.711 0.171,0.449 0.322,0.91 0.469,1.368 1.578,0.949 2.23,3.063 2.856,4.673 1.922,4.94 3.551,9.984 4.937,15.1 0.784,2.896 1.46,5.816 2.12,8.743 0.178,0.789 -0.929,1.079 -1.201,0.331 -1.903,-5.247 -3.741,-10.517 -5.598,-15.78 -0.919,-2.607 -1.838,-5.214 -2.758,-7.82 -0.451,-1.279 -0.902,-2.558 -1.353,-3.837 -0.073,-0.207 -0.15,-0.415 -0.228,-0.623 -0.337,-0.106 -0.713,-0.134 -1.06,-0.072 -0.974,1.11 -2.122,2.187 -2.898,3.447 -0.798,1.297 -0.477,2.735 -0.241,4.151 0.146,0.873 0.292,1.746 0.437,2.619 0.135,0.253 0.266,0.508 0.391,0.766 4.312,8.906 5.37,18.95 5.217,28.731 -0.019,1.215 -0.061,2.429 -0.126,3.643 -0.053,0.99 -1.684,1.354 -1.844,0.249 -1.001,-6.901 -2.425,-13.758 -3.699,-20.613 -0.629,-3.38 -1.25,-6.76 -1.857,-10.143 -0.145,-0.811 -0.29,-1.621 -0.435,-2.431 -0.481,-0.874 -0.984,-1.736 -1.515,-2.583 -1.414,-2.255 -2.38,-4.473 -2.591,-7.153 -0.2,-2.547 0.146,-5.098 0.179,-7.645 0.031,-2.342 -0.107,-4.694 -0.443,-7.012 -1.343,-9.273 -5.426,-18.152 -11.773,-25.066 -1.674,-1.824 -3.412,-3.467 -3.823,-6.026 -0.424,-2.644 -0.264,-5.429 -0.196,-8.096 0.14,-5.479 0.577,-10.966 0.176,-16.445 -0.103,-1.411 -0.264,-2.817 -0.509,-4.21 -0.212,-1.204 -0.532,-2.388 -0.693,-3.6 -0.153,-1.146 -0.147,-2.321 0.322,-3.398 0.452,-1.037 1.294,-1.677 2.09,-2.435 3.497,-3.331 1.014,-9.055 0.933,-13.165 -0.196,-0.55 -0.33,-1.122 -0.376,-1.737 -0.097,-1.283 0.078,-2.619 0.554,-3.815 0.443,-1.111 1.042,-2.07 2.044,-2.754 0.574,-0.392 1.747,-0.732 2.065,-1.394 0.086,-0.181 0.007,-0.317 -0.042,-0.393 -0.073,-0.115 -0.324,-0.317 -0.523,-0.445 -0.598,-0.388 -1.259,-0.667 -1.865,-1.041 -0.641,-0.396 -1.256,-0.887 -1.596,-1.575 -0.534,-1.083 -0.161,-2.138 0.322,-3.164 0.292,-0.618 0.579,-1.238 0.868,-1.858 -6.358,0.484 -12.723,0.881 -19.092,1.162 -8.878,0.392 -17.865,0.443 -26.605,-1.382 -0.532,-0.111 -1.061,-0.231 -1.59,-0.356 -2.238,2.718 -4.471,5.44 -6.667,8.19 -2.096,2.626 -4.02,5.37 -5.59,8.345 -1.52,2.88 -2.741,5.9 -3.86,8.955 -0.563,1.535 -1.101,3.079 -1.638,4.623 -0.22,0.633 -0.781,0.875 -1.307,0.83 0.012,0.21 0.027,0.419 0.038,0.628 0.629,11.186 1.005,22.383 1.132,33.586 0.031,2.774 0.048,5.548 0.049,8.322 0.002,2.764 0.16,5.602 -0.132,8.353 -0.272,2.564 -1.319,4.774 -2.748,6.892 -1.424,2.109 -2.964,4.145 -4.538,6.144 -3.1,3.937 -6.453,7.675 -10.03,11.185 -3.014,2.958 -6.791,7.218 -11.457,6.777 -0.612,-0.058 -1.19,-0.217 -1.735,-0.462 -8.164,-0.482 -16.33,-0.93 -24.494,-1.418 -2.93,-0.175 -5.863,-0.335 -8.795,-0.496 0.601,2.638 1.203,5.276 1.805,7.915 0.79,3.463 1.756,6.969 1.175,10.541 -0.123,0.752 -0.299,1.493 -0.451,2.236 1.184,1.19 2.252,2.494 3.133,3.923 1.275,2.067 2.142,4.37 2.82,6.693 1.505,5.158 2.098,10.766 4.96,15.425 0.682,1.109 -0.985,2.026 -1.716,1.003 -3.871,-5.415 -7.109,-11.273 -9.657,-17.423 -1.219,-2.941 -2.098,-5.804 -1.771,-8.946 -3.36,-3.119 -7.452,-5.357 -11.375,-7.677 -4.404,-2.605 -8.544,-5.402 -12.301,-8.89 -1.815,-1.684 -3.636,-3.427 -5.721,-4.78 -0.395,-0.256 -0.799,-0.495 -1.208,-0.718 -0.76,0.228 -1.569,0.347 -2.326,0.374 -3.343,0.122 -6.796,-0.288 -10.108,-0.71 -6.887,-0.879 -13.669,-2.493 -20.198,-4.859 -2.889,-1.047 -5.724,-2.24 -8.497,-3.562 3.45,9.567 7.651,18.852 12.557,27.762 m 113.949,117.838 c 0.151,0.726 0.348,2.429 1.427,2.044 1.026,-0.365 1.179,-1.823 1.276,-2.74 0.321,-3.047 0.254,-6.075 0.137,-9.128 -2.393,2.591 -3.556,6.36 -2.84,9.824 m -6.511,44.221 c 2.267,0.845 4.728,1.207 7.143,1.118 -1.251,-1.424 -4.145,-1.282 -5.805,-1.168 -0.428,0.029 -0.878,0.047 -1.338,0.05 m 0.177,-30.938 c -2.028,7.82 -3.53,15.802 -4.606,23.807 -0.177,1.312 -0.575,2.993 0.651,3.921 0.964,0.731 2.325,0.865 3.492,0.903 2.666,0.089 5.455,-0.423 7.866,1.071 1.08,0.67 1.888,1.704 2.063,2.983 0.093,0.675 -0.254,1.224 -0.971,1.275 -3.304,0.234 -6.499,-0.218 -9.597,-1.248 0.138,3.657 -2.667,6.898 -5.587,8.923 -1.906,1.322 -4.004,2.402 -5.746,3.95 -1.694,1.505 -2.969,3.38 -4.034,5.367 -2.312,4.316 -4.092,8.967 -5.667,13.594 -0.811,2.381 -1.545,4.788 -2.203,7.216 -0.335,1.238 -0.65,2.481 -0.945,3.729 -0.264,1.118 -0.64,2.358 -0.357,3.51 0.431,1.754 2.446,2.494 4.056,2.687 2.423,0.289 4.869,-0.173 7.267,0.432 3.862,0.976 6.624,4.069 9.438,6.672 1.466,1.355 3.005,2.589 4.816,3.457 2.051,0.983 4.327,1.479 6.565,1.821 2.296,0.351 4.62,0.502 6.924,0.79 2.341,0.292 4.658,0.717 6.95,1.274 9.371,2.276 18.135,6.428 27.33,9.262 7.209,2.223 15.843,4.209 23.068,0.902 3.473,-1.59 6.005,-4.416 6.985,-8.139 0.551,-2.093 0.623,-4.273 0.486,-6.424 -0.071,-1.109 -0.201,-2.212 -0.378,-3.309 -0.181,-1.117 -0.477,-2.234 -0.55,-3.365 -0.071,-1.109 0.228,-2.265 1.067,-3.038 0.712,-0.655 1.647,-0.925 2.567,-1.137 0.808,-0.186 1.565,-0.357 2.16,-0.97 0.536,-0.554 0.819,-1.283 0.976,-2.026 0.398,-1.883 -0.326,-3.682 -1.278,-5.275 -1.15,-1.926 -2.594,-3.654 -3.686,-5.618 -4.486,-8.068 -4.53,-17.678 -4.149,-26.653 -1.8,-0.246 -3.594,-0.525 -5.381,-0.849 -8.073,-1.461 -16.005,-3.622 -24.018,-5.364 -7.766,-1.689 -15.662,-2.751 -23.624,-2.491 -2.043,0.067 -4.082,0.235 -6.105,0.535 -0.712,0.105 -1.045,-0.934 -0.306,-1.111 3.705,-0.887 7.575,-1.458 11.39,-1.437 3.817,0.021 7.62,0.387 11.395,0.932 7.764,1.119 15.366,3.08 23.009,4.807 3.802,0.86 7.62,1.672 11.467,2.312 0.76,0.126 1.522,0.239 2.284,0.349 0.488,-9.977 1.373,-19.929 2.46,-29.859 0.227,-2.071 0.437,-4.144 0.648,-6.217 -0.34,-0.085 -0.683,-0.164 -1.025,-0.244 -0.261,0.134 -0.596,0.112 -0.757,-0.176 -0.345,-0.078 -0.691,-0.156 -1.036,-0.235 -3.992,-0.915 -7.998,-1.774 -12.015,-2.577 -8.034,-1.606 -16.114,-2.985 -24.225,-4.138 -8.109,-1.153 -16.25,-2.059 -24.41,-2.76 -1.998,-0.172 -4.009,-0.396 -6.015,-0.437 -1.671,-0.035 -3.353,0.155 -4.752,1.146 -2.353,1.666 -3.271,4.822 -3.957,7.47 m 78.039,38.231 c 1.471,-0.365 1.146,-2.808 1.165,-3.92 0.139,-8.033 0.279,-16.067 0.42,-24.1 -0.693,7.596 -1.303,15.202 -1.767,22.811 -0.108,1.755 -0.213,3.513 -0.301,5.272 0.164,-0.01 0.327,-0.024 0.483,-0.063 m -2.94,-43.777 c 0.128,-2.539 0.657,-5.039 1.137,-7.529 0.476,-2.463 0.923,-4.951 0.869,-7.47 -0.057,-2.627 -0.825,-5.079 -2.096,-7.367 -1.28,-2.304 -2.913,-4.384 -4.498,-6.481 -1.728,-2.285 -3.346,-4.645 -4.802,-7.113 -1.456,-2.468 -2.76,-5.025 -3.902,-7.653 -1.009,-2.323 -1.744,-5.061 -3.619,-6.864 -1.039,-0.999 -2.389,-1.614 -3.713,-2.141 -1.482,-0.589 -2.98,-1.154 -4.499,-1.64 -1.52,-0.486 -3.089,-0.9 -4.686,-1.016 -1.047,-0.076 -2.042,0.007 -3.036,0.183 -0.057,0.032 -0.107,0.069 -0.179,0.09 -5.543,1.619 -10.397,4.71 -14.481,8.759 -4.456,4.42 -7.938,9.644 -11.328,14.893 -1.662,2.573 -3.538,5.178 -4.273,8.198 -0.039,0.158 -0.069,0.318 -0.101,0.478 -0.044,0.583 -0.119,1.163 -0.232,1.739 -0.014,0.192 -0.028,0.384 -0.037,0.576 0.024,0.151 0.02,0.304 -0.015,0.455 -0.057,2.218 0.203,4.475 0.185,6.665 -0.013,1.643 -0.093,3.292 -0.277,4.925 -0.114,1.011 -0.301,2.054 -0.773,2.955 1.126,0.082 2.251,0.196 3.368,0.291 2.143,0.18 4.285,0.38 6.425,0.595 4.229,0.425 8.452,0.911 12.666,1.459 8.481,1.102 16.93,2.441 25.333,4.03 4.226,0.799 8.44,1.66 12.64,2.583 1.454,0.32 2.903,0.656 4.353,0.99 -0.373,-1.485 -0.508,-3.015 -0.429,-4.59 m -8.076,-48.741 c -1.9,-3.345 -4.25,-6.435 -6.985,-9.148 -0.031,-0.031 -0.064,-0.058 -0.095,-0.089 2.088,2.753 4.173,5.507 6.292,8.234 0.258,0.332 0.522,0.667 0.788,1.003 m 4.755,12.845 c -0.326,-1.688 -0.763,-3.351 -1.295,-4.984 -0.345,-0.721 -0.723,-1.399 -1.089,-1.996 -1.329,-2.166 -3.025,-4.1 -4.599,-6.088 -1.815,-2.291 -3.664,-4.555 -5.502,-6.828 -2.052,-2.536 -4.111,-5.066 -6.138,-7.623 -4.379,1.62 -9.061,2.598 -13.526,3.787 -5.773,1.537 -11.595,3.144 -17.033,5.656 -2.615,1.208 -5.159,2.613 -7.501,4.295 -2.319,1.665 -4.505,3.789 -5.357,6.59 -1.465,4.818 0.759,9.926 1.727,14.694 1.088,-1.997 2.405,-3.886 3.643,-5.777 3.21,-4.905 6.596,-9.82 10.887,-13.854 3.708,-3.484 8.166,-6.52 13.118,-7.881 -0.003,-0.356 0.162,-0.706 0.568,-0.916 2.661,-1.382 5.897,-1.1 8.721,-0.412 2.826,0.688 5.655,1.804 8.264,3.086 2.528,1.242 4.298,3.09 5.466,5.647 1.203,2.636 2.191,5.347 3.504,7.938 1.361,2.684 2.893,5.281 4.588,7.767 0.06,0.088 0.123,0.173 0.184,0.261 0.948,-0.954 1.339,-2.122 1.37,-3.362 m 66.856,-123.028 c 0.751,0.505 1.5,1.013 2.254,1.513 1.97,1.306 4.986,3.102 7.06,0.982 0.675,-0.69 0.897,-1.713 0.194,-2.466 -0.596,-0.637 -1.599,-0.818 -2.43,-0.863 -2.265,-0.123 -4.403,0.839 -6.669,0.845 -0.136,0 -0.273,-0.004 -0.409,-0.011 m 11.636,8.052 c 0.061,-0.442 0.554,-0.688 0.943,-0.718 2.631,-0.203 4.723,-2.711 4.698,-5.297 -10e-4,-0.164 0.045,-0.292 0.109,-0.402 0.004,-0.446 -0.014,-0.892 -0.069,-1.334 -0.27,-2.19 -1.599,-4.049 -1.389,-6.314 0.107,-1.147 0.429,-2.256 0.599,-3.392 0.152,-1.022 0.195,-2.066 0.159,-3.099 -0.07,-2.061 -0.504,-4.095 -1.154,-6.049 -1.365,-4.11 -3.707,-7.848 -6.192,-11.366 -0.63,-0.892 -1.276,-1.774 -1.931,-2.649 -0.569,-0.761 -1.127,-1.697 -1.898,-2.276 -1.457,-1.093 -2.835,1.971 -3.346,2.933 -2.129,4.012 -2.715,8.795 -1.634,13.202 0.14,0.571 -0.114,1.056 -0.521,1.32 1.899,0.28 3.759,0.868 5.466,1.701 1.587,0.774 3.063,1.803 4.355,3.005 1.335,1.242 2.23,2.669 3.106,4.246 0.671,1.209 -1.181,2.292 -1.853,1.083 -0.741,-1.333 -1.897,-2.542 -3.006,-3.576 -1.115,-1.04 -2.385,-1.893 -3.748,-2.572 -2.449,-1.221 -5.036,-1.653 -7.706,-1.539 0.069,2.884 0.183,5.773 0.438,8.645 0.109,1.232 0.067,2.898 1.136,3.748 0.785,0.624 1.896,0.646 2.85,0.583 2.213,-0.146 4.267,-1.05 6.52,-0.805 2.102,0.229 4.214,1.329 4.461,3.648 0.27,2.544 -2.176,4.532 -4.521,4.763 -2.92,0.288 -5.496,-1.697 -7.769,-3.239 -2.745,-1.862 -5.491,-3.725 -8.237,-5.587 l -4.119,-2.794 c -0.643,-0.437 -1.287,-0.873 -1.93,-1.31 -0.44,-0.298 -1.145,-0.969 -1.729,-0.786 -0.484,0.152 -0.76,0.792 -0.8,1.253 -0.067,0.764 0.363,1.525 0.746,2.151 0.948,1.549 2.053,3.018 3.082,4.514 2.137,3.106 4.274,6.212 6.411,9.318 0.625,0.908 -0.802,2.015 -1.534,1.183 -2.838,-3.224 -5.678,-6.447 -8.514,-9.672 -1.323,-1.505 -2.596,-3.071 -3.984,-4.516 -0.976,-1.016 -2.27,-2.211 -3.751,-2.187 -0.42,4.307 2.323,8.301 4.961,11.452 2.775,3.314 5.856,6.469 7.341,10.617 0.304,0.849 -0.915,1.525 -1.505,0.877 -3.568,-3.921 -6.931,-8.035 -10.363,-12.074 -1.604,-1.888 -3.129,-3.897 -4.852,-5.677 -0.91,-0.94 -2.989,-2.263 -4.083,-1.049 4.279,7.317 8.817,14.471 13.675,21.417 0.575,0.822 -0.555,1.91 -1.371,1.372 -2.99,-1.971 -5.019,-4.894 -7.39,-7.507 -1.81,-1.994 -4.277,-4.092 -7.046,-4.453 2.847,3.58 5.823,7.059 8.952,10.396 3.647,3.89 7.457,7.74 11.56,11.153 0.939,0.781 1.958,1.353 3.197,1.425 1.314,0.077 2.661,-0.066 3.966,-0.212 2.697,-0.3 5.364,-0.904 7.942,-1.747 0.599,-0.195 1.194,-0.404 1.783,-0.628 0.516,-0.195 1.164,-0.4 1.485,-0.881 0.555,-0.83 0.23,-2.159 0.21,-3.087 -0.043,-1.983 0.578,-3.869 1.497,-5.604 2.044,-3.864 5.677,-7.103 6.297,-11.607 m 7.05,-17.552 c 1.631,-2.654 3.145,-5.376 4.461,-8.203 1.428,-3.068 2.944,-6.344 3.086,-9.782 0.144,-3.517 -1.672,-6.402 -3.872,-8.986 -2.367,-2.778 -4.843,-5.478 -7.37,-8.112 -2.128,-2.219 -4.364,-4.863 -7.299,-6.021 -2.696,-1.062 -5.524,-0.411 -7.9,1.109 -5.094,3.259 -7.839,9.481 -8.948,15.218 -0.414,2.141 -0.585,4.346 -0.539,6.552 0.137,0.077 0.248,0.203 0.284,0.371 0.199,-0.822 0.447,-1.638 0.756,-2.442 0.442,-1.147 2.217,-1.056 2.234,0.302 0.04,3.368 1.589,6.42 4.081,8.519 -0.376,-3.67 0.213,-7.392 1.711,-10.799 0.463,-1.053 1.016,-2.066 1.66,-3.021 0.602,-0.895 1.282,-1.845 2.256,-2.367 2.396,-1.287 4.24,0.755 5.554,2.516 5.356,7.175 11.176,15.784 9.845,25.146 m -29.598,-8.64 c -0.293,1.463 -0.605,2.918 -0.941,4.371 -0.337,1.461 -0.583,3.021 -1.166,4.402 -0.066,0.157 -0.171,0.27 -0.297,0.345 2.47,1.557 4.849,3.306 7.264,4.935 0.528,0.356 1.056,0.714 1.584,1.072 -0.225,-0.616 -0.355,-1.276 -0.435,-1.944 -0.447,-3.721 -0.736,-7.473 -0.945,-11.215 -0.027,-0.491 0.396,-1.088 0.897,-1.178 1.086,-0.194 2.189,-0.245 3.289,-0.195 -2.71,-1.512 -4.809,-4.009 -5.981,-6.882 -0.437,3.569 0.068,7.269 1.603,10.513 0.516,1.09 -1.056,2.05 -1.641,0.959 -1.225,-2.285 -2.186,-4.688 -2.864,-7.161 -0.116,0.659 -0.236,1.319 -0.367,1.978 M -159.147,-1.65 c 7.447,-0.697 14.905,-1.495 22.219,-3.105 7.123,-1.567 14.141,-3.937 20.394,-7.747 0.754,-0.459 1.499,-0.934 2.224,-1.437 0.507,-0.352 1.155,-0.798 1.435,-1.394 -0.153,-0.229 -0.306,-0.458 -0.458,-0.687 -0.133,0.091 -0.278,0.157 -0.429,0.194 -0.818,2.106 -3.193,3.541 -5.242,4.293 -3.617,1.327 -7.525,1.634 -11.347,1.742 -3.925,0.11 -7.863,-0.044 -11.77,0.422 -3.887,0.464 -7.487,1.882 -11.107,3.293 -3.718,1.448 -7.444,2.548 -11.425,2.968 -3.979,0.418 -7.994,0.224 -11.952,-0.306 -8.143,-1.088 -15.983,-3.641 -23.887,-5.785 -2.238,-0.606 -4.486,-1.174 -6.754,-1.656 -0.451,-0.096 -1.049,-0.33 -1.517,-0.24 -0.38,0.073 -0.592,0.397 -0.804,0.696 -0.558,0.791 -1.102,1.555 -1.806,2.229 -2.494,2.389 -6.517,4.138 -6.686,7.962 10.893,1.954 22.398,1.149 33.312,0.499 8.543,-0.509 17.079,-1.144 25.6,-1.941 m -30.672,-26.919 c -2.189,4.626 -5.906,8.503 -10.332,11.048 -2.64,1.518 -5.599,2.386 -8.21,3.956 -0.076,0.045 -0.145,0.099 -0.22,0.147 0.454,0.007 0.914,0.083 1.368,0.171 8.177,1.591 16.046,4.404 24.164,6.24 7.715,1.745 15.902,2.618 23.645,0.546 3.78,-1.011 7.312,-2.74 11.03,-3.934 3.723,-1.195 7.588,-1.576 11.48,-1.666 4.357,-0.102 8.782,0.143 13.101,-0.561 1.942,-0.316 4.004,-0.738 5.759,-1.661 1.151,-0.605 2.324,-1.418 2.843,-2.609 -0.601,-1.189 -1.211,-2.373 -1.837,-3.548 -2.406,-1.68 -5.052,-3.029 -7.789,-4.067 -6.534,-2.48 -13.519,-3.455 -20.453,-3.98 -8.254,-0.625 -16.55,-0.835 -24.826,-0.782 -6.573,0.042 -13.153,0.274 -19.723,0.7 m -51.652,50.955 c 0.051,0.731 0.101,1.462 0.15,2.194 0.09,1.338 0.165,2.678 0.248,4.017 1.855,-5.303 3.867,-10.601 6.931,-15.33 1.821,-2.812 3.967,-5.402 6.096,-7.982 1.234,-1.495 2.467,-2.989 3.7,-4.483 -2.239,-0.642 -4.437,-1.426 -6.566,-2.359 -1.02,2.162 -2.058,4.317 -3.149,6.445 -1.401,2.733 -2.882,5.425 -4.493,8.04 -0.782,1.269 -1.592,2.521 -2.435,3.75 -0.793,1.156 -1.577,2.381 -2.624,3.328 -0.053,0.048 -0.11,0.089 -0.165,0.135 0.622,0.084 1.232,0.291 1.72,0.673 0.544,0.426 0.541,0.924 0.587,1.572 m -10.047,25.237 c 0.219,-5.572 0.527,-11.136 0.936,-16.698 0.057,-0.768 0.096,-1.553 0.152,-2.339 -0.764,1.5 -1.53,2.999 -2.305,4.493 -1.912,3.685 -3.789,7.391 -5.901,10.966 1.167,0.749 2.053,1.938 2.677,3.186 1.188,2.375 2.025,4.966 2.914,7.462 0.516,1.449 1.009,2.906 1.489,4.368 0.044,-1.052 0.08,-2.105 0.079,-3.159 -0.002,-2.765 -0.149,-5.513 -0.041,-8.279 m 29.546,-72.438 c -3.472,0.61 -6.928,1.352 -10.288,2.424 -1.837,0.586 -3.642,1.272 -5.384,2.101 -1.381,0.658 -3.009,1.398 -3.896,2.71 -1.046,1.546 -0.042,3.149 0.969,4.422 1.026,1.291 2.186,2.481 3.43,3.563 1.833,1.595 3.91,2.951 6.108,4.03 0.838,-1.821 1.67,-3.645 2.499,-5.47 2.105,-4.633 4.212,-9.267 6.562,-13.78 m -4.301,13.217 c -1.04,2.26 -2.073,4.524 -3.115,6.783 0.363,0.151 0.728,0.297 1.095,0.433 1.548,0.572 3.145,1.015 4.768,1.314 0.7,0.129 1.409,0.232 2.118,0.309 0.02,-0.025 0.04,-0.049 0.061,-0.074 2.204,-2.671 4.436,-5.32 6.659,-7.974 1.995,-2.381 4.149,-4.316 6.974,-5.659 2.603,-1.238 5.322,-2.174 7.754,-3.752 2.184,-1.417 4.14,-3.199 5.746,-5.25 0.719,-0.918 1.358,-1.897 1.912,-2.921 -9.117,0.661 -18.207,1.702 -27.217,3.171 -2.439,4.442 -4.636,9.021 -6.755,13.62 m 35.565,-20.685 c 0.351,-1.246 0.577,-2.52 0.642,-3.813 0.07,-1.376 0.032,-2.926 -0.955,-3.999 -0.909,-0.989 -2.295,-1.454 -3.533,-1.869 -1.546,-0.519 -3.15,-0.94 -4.777,-1.086 -2.954,-0.264 -5.723,0.394 -8.197,2.029 -2.253,1.49 -4.101,3.582 -5.694,5.742 -1.75,2.375 -3.343,4.891 -4.823,7.442 -0.005,0.009 -0.01,0.018 -0.016,0.027 0.399,-0.059 0.798,-0.122 1.196,-0.18 8.508,-1.253 17.064,-2.17 25.644,-2.754 0.191,-0.506 0.366,-1.018 0.513,-1.539 m -169.219,-20.11 c -9.288,-0.56 -18.597,-0.717 -27.894,-0.391 7.527,1.832 15.251,2.779 22.99,3.248 10.242,0.62 20.508,0.465 30.763,0.548 3.167,0.026 6.334,0.09 9.499,0.186 -11.74,-1.616 -23.528,-2.878 -35.358,-3.591 M 8.284,5.039 C 4.241,4.451 0.232,3.581 -3.781,2.814 -7.796,2.047 -11.81,1.28 -15.825,0.513 -23.854,-1.021 -31.882,-2.56 -39.91,-4.102 c -16.002,-3.074 -32.006,-6.137 -48.001,-9.249 -7.919,-1.54 -15.843,-3.064 -23.732,-4.749 0.599,0.879 0.947,1.887 0.646,2.99 -0.473,1.734 -2.282,2.768 -3.677,3.694 -1.611,1.069 -3.284,2.042 -5.003,2.926 -6.933,3.561 -14.525,5.62 -22.169,6.979 -8.072,1.436 -16.27,2.165 -24.43,2.888 -1.908,0.17 -3.817,0.326 -5.726,0.479 -0.082,0.175 -0.165,0.349 -0.247,0.524 -0.173,0.368 -0.347,0.736 -0.52,1.104 -0.293,0.622 -0.681,1.267 -0.892,1.924 -0.228,0.712 0.047,0.935 0.696,1.327 1.275,0.77 3.061,1.304 3.505,2.916 0.269,0.975 -0.093,1.999 -0.814,2.682 -0.746,0.707 -1.76,0.996 -2.547,1.636 -0.738,0.6 -1.209,1.492 -1.477,2.491 0.023,0.081 0.034,0.171 0.008,0.278 -0.218,0.897 -0.291,1.792 -0.274,2.685 0.043,0.749 0.158,1.463 0.327,2.068 0.047,0.168 0,0.312 -0.089,0.422 0.472,3.052 1.412,6.101 0.677,9.188 -0.246,1.032 -0.692,2.01 -1.348,2.845 -0.657,0.836 -1.685,1.409 -2.208,2.342 -0.562,1.001 -0.395,2.257 -0.184,3.334 0.253,1.3 0.584,2.58 0.802,3.888 0.897,5.395 0.775,10.886 0.594,16.333 -0.09,2.723 -0.183,5.447 -0.135,8.172 0.023,1.302 -0.001,2.657 0.365,3.918 0.333,1.15 1.104,2.044 1.911,2.897 3.233,3.421 6.06,7.128 8.265,11.3 2.206,4.173 3.833,8.668 4.772,13.294 0.962,4.738 1.049,9.42 0.808,14.229 -0.127,2.554 -0.144,5.192 1.016,7.538 0.041,0.083 0.086,0.164 0.128,0.246 0.03,-0.542 0.125,-1.08 0.33,-1.605 0.65,-1.661 2.006,-2.984 3.157,-4.309 1.289,-1.483 2.583,-2.963 3.874,-4.445 0.426,-0.488 0.963,-0.489 1.388,-0.243 -1.533,-1.828 -3.038,-3.678 -4.489,-5.573 -0.413,-0.54 0.01,-1.514 0.662,-1.627 3.926,-0.681 7.495,1.409 10.175,4.122 0.081,0.082 0.157,0.17 0.237,0.254 -2.379,-3.697 -4.702,-7.431 -6.945,-11.21 -0.425,-0.717 -1.211,-1.569 -0.846,-2.432 0.273,-0.642 0.847,-1.17 1.462,-1.479 1.333,-0.672 2.886,-0.537 4.177,0.158 1.572,0.845 2.682,2.371 3.815,3.702 0.271,0.319 0.54,0.64 0.81,0.959 -1.246,-2.374 -1.92,-4.968 -1.445,-8.016 0.046,-0.298 0.36,-0.573 0.641,-0.641 3.201,-0.775 5.726,1.871 7.777,4.29 -0.569,-0.892 -1.049,-1.835 -1.153,-2.911 -0.114,-1.169 0.363,-2.396 1.285,-3.137 0.914,-0.734 2.008,-0.745 3.01,-0.296 0.159,-1.478 0.677,-2.957 1.038,-4.398 0.362,-1.444 0.725,-2.887 1.085,-4.331 0.426,-1.71 0.88,-3.416 1.314,-5.126 -0.463,-2.933 -0.531,-5.931 -0.17,-8.924 0.775,-6.431 3.34,-13.315 8.435,-17.573 2.417,-2.021 5.478,-3.526 8.707,-3.238 3.419,0.304 6.159,2.364 8.535,4.694 2.818,2.765 5.466,5.731 7.993,8.762 2.297,2.755 4.938,5.625 5.782,9.217 0.964,4.103 -0.293,8.337 -1.834,12.128 -1.656,4.077 -3.712,8.02 -6.124,11.7 -0.477,0.729 -1.34,0.676 -1.864,0.256 -0.176,0.886 -0.268,1.773 -0.015,2.687 0.357,1.294 0.853,2.478 0.993,3.829 0.134,1.297 0.015,2.587 -0.339,3.807 -0.468,2.703 -2.649,4.905 -5.337,5.536 -0.743,3.981 -3.528,7.019 -5.583,10.421 -1.008,1.668 -1.845,3.497 -1.85,5.481 -0.002,1.181 0.226,2.401 -0.134,3.555 -0.155,0.497 -0.398,0.907 -0.705,1.254 0.005,0.044 0.013,0.086 0.013,0.133 -0.017,8.589 -4.329,16.246 -8.61,23.413 -4.63,7.754 -8.844,15.65 -12.112,24.086 -1.696,4.381 -3.171,8.853 -4.394,13.39 0.109,-0.01 0.218,-0.016 0.327,-0.029 1.201,-0.147 1.729,1.832 0.627,2.316 -7.466,3.279 -14.217,7.89 -20.028,13.606 -5.26,5.175 -9.911,10.97 -15.496,15.812 -3.128,2.711 -6.511,5.007 -10.285,6.722 -0.642,0.291 -1.34,-0.054 -1.38,-0.792 -0.049,-0.914 -0.141,-1.824 -0.253,-2.731 -0.331,0.52 -0.745,0.993 -1.238,1.406 1.387,1.944 2.861,3.825 4.193,5.808 1.511,2.25 2.84,4.696 3.44,7.359 0.581,2.574 0.448,5.201 0.07,7.792 -0.743,5.093 -2.757,10.548 -1.648,15.714 0.148,0.034 0.295,0.066 0.443,0.1 0.359,0.085 0.725,0.164 1.086,0.252 0.555,-0.849 2.143,-0.687 2.022,0.52 -0.009,0.085 -0.017,0.17 -0.025,0.255 0.537,0.356 0.967,0.857 1.206,1.607 0.239,0.749 0.217,1.569 0.205,2.346 -0.02,1.151 -0.041,2.304 -0.061,3.455 -0.039,2.2 -0.078,4.399 -0.117,6.598 -0.077,4.399 -0.156,8.797 -0.235,13.195 -0.039,2.2 -0.078,4.399 -0.118,6.598 -0.03,1.675 0.117,3.616 -1.005,5.002 -0.778,0.962 -1.851,1.241 -2.972,1.259 -0.1,2.51 -0.149,5.022 -0.097,7.531 0.096,4.626 0.599,9.282 2.139,13.669 0.743,2.12 1.761,4.121 3.017,5.982 1.314,1.946 2.763,3.789 3.601,6.008 1.35,3.573 0.187,8.293 -3.864,9.35 -0.679,0.178 -1.876,0.215 -2.306,0.855 -0.506,0.754 -0.003,2.1 0.142,2.909 0.407,2.286 0.699,4.612 0.668,6.938 -0.055,4.305 -1.341,8.613 -4.498,11.668 -5.576,5.396 -14.458,5.556 -21.613,4.12 -9.606,-1.928 -18.543,-6.176 -27.79,-9.273 -4.586,-1.537 -9.278,-2.801 -14.089,-3.383 -4.656,-0.562 -9.483,-0.762 -13.807,-2.761 -3.763,-1.74 -6.34,-5.018 -9.515,-7.558 -1.484,-1.188 -3.182,-2.166 -5.084,-2.46 -2.431,-0.376 -4.906,0.193 -7.333,-0.33 -1.861,-0.401 -3.772,-1.441 -4.645,-3.206 -1.151,-2.326 -0.27,-5.025 0.32,-7.384 1.268,-5.072 2.871,-10.059 4.797,-14.919 1.755,-4.432 3.572,-9.123 6.683,-12.804 1.549,-1.832 3.502,-3.183 5.52,-4.448 1.901,-1.192 3.906,-2.354 5.35,-4.109 1.274,-1.549 2.123,-3.599 1.479,-5.587 -0.1,-0.311 -0.038,-0.588 0.108,-0.809 -1.296,-0.36 -2.452,-1.03 -3.174,-2.231 -1.003,-1.67 -0.562,-3.656 -0.315,-5.467 0.289,-2.118 0.61,-4.232 0.963,-6.34 0.705,-4.218 1.536,-8.414 2.492,-12.581 0.778,-3.393 1.435,-7.03 3.163,-10.099 0.763,-1.355 1.78,-2.569 3.079,-3.439 0.596,-0.399 1.242,-0.695 1.914,-0.912 -0.245,-0.477 -0.42,-1.003 -0.553,-1.516 -1.349,-5.198 0.731,-10.934 4.957,-14.169 -1.719,0.854 -3.561,1.611 -5.494,1.58 -2.18,-0.035 -3.897,-1.216 -5.267,-2.822 -1.348,-1.58 -2.569,-3.235 -4.054,-4.698 -1.528,-1.506 -3.199,-2.865 -4.975,-4.067 -7.571,-5.125 -16.356,-7.745 -25.012,-10.387 -5.19,-1.584 -10.363,-3.242 -15.309,-5.49 -1.158,0.331 -2.396,0.245 -3.651,-0.43 -2.301,-1.239 -3.756,-3.677 -5.231,-5.734 -1.802,-2.512 -3.602,-5.025 -5.402,-7.538 -7.264,-10.137 -14.528,-20.274 -21.792,-30.41 -6.945,-9.693 -14.064,-19.286 -20.06,-29.611 -5.705,-9.824 -10.527,-20.15 -14.456,-30.809 -0.495,-1.344 -0.974,-2.694 -1.441,-4.048 -0.168,-0.489 0.075,-0.894 0.448,-1.108 -1.963,-1.13 -3.805,-2.468 -5.407,-4.066 -2.249,-2.243 -3.955,-5.078 -4.354,-8.195 -1.569,-1.394 -2.456,-3.458 -2.895,-5.528 -0.622,-2.937 -0.662,-6.06 -0.545,-9.049 0.122,-3.115 0.627,-6.4 2.41,-9.036 1.768,-2.615 4.524,-4.221 7.566,-4.916 3.07,-0.702 6.257,-0.633 9.377,-0.405 3.899,0.286 7.792,0.673 11.672,1.151 7.82,0.963 15.594,2.283 23.288,3.98 5.859,1.291 11.643,2.838 17.375,4.573 0.272,-1.42 0.59,-2.831 0.97,-4.227 0.513,-1.887 1.412,-4.198 3.427,-4.912 0.533,-0.19 1.145,-0.245 1.698,-0.105 0.674,0.17 0.976,0.841 1.292,1.406 0.652,1.164 1.162,2.425 1.508,3.713 0.536,1.998 0.681,4.074 0.451,6.118 1.942,0.743 3.883,1.486 5.824,2.229 1.012,0.256 2.024,0.506 3.039,0.74 0.451,-4.116 0.441,-8.29 0.019,-12.408 -2.419,0.296 -4.926,-0.719 -6.577,-2.518 -2.196,-2.391 -2.373,-5.509 -1.164,-8.427 1.327,-3.2 3.564,-5.865 3.714,-9.467 0.164,-3.928 -1.29,-7.721 -2.263,-11.468 -3.99,-15.379 -2.571,-31.374 -2.496,-47.073 0.042,-8.808 -0.343,-17.663 -2.355,-26.27 -0.121,-0.516 0.056,-0.948 0.383,-1.22 -6.454,-0.413 -12.919,-0.668 -19.386,-0.76 -10.306,-0.146 -20.619,0.056 -30.919,-0.418 -10.146,-0.467 -20.338,-1.595 -30.134,-4.374 -1.243,-0.353 -2.477,-0.734 -3.704,-1.138 -1.309,-0.432 -1.046,-2.282 0.32,-2.369 10.489,-0.67 21.015,-0.649 31.509,-0.117 10.499,0.532 20.97,1.632 31.386,3.039 8.449,1.14 16.852,2.537 25.242,4.027 1.582,0.118 3.163,0.243 4.744,0.382 10.612,0.93 21.188,2.291 31.685,4.107 10.441,1.806 20.807,4.057 31.085,6.631 1.304,0.326 2.606,0.661 3.906,1.003 0.547,0.144 0.811,0.631 0.83,1.125 3.751,-5.162 7.519,-10.31 11.336,-15.424 2.417,-3.238 4.738,-6.74 8.076,-9.112 3.312,-2.354 7.403,-3.284 11.331,-4.01 8.675,-1.605 17.524,-2.016 26.329,-1.7 4.471,0.161 8.934,0.506 13.383,0.966 4.251,0.439 8.546,0.868 12.749,1.652 3.919,0.73 7.658,2.056 10.745,4.645 3.095,2.596 5.636,5.959 8.149,9.1 5.135,6.417 9.831,13.182 14.013,20.259 0.681,1.153 1.346,2.315 1.998,3.483 16.659,2.734 33.259,5.854 49.838,9.026 17.594,3.364 35.149,6.933 52.647,10.763 4.906,1.073 9.813,2.147 14.716,3.236 3.376,0.75 7.278,1.891 9.082,5.127 0.526,0.943 -0.338,1.807 -1.283,1.67" style="fill:#000000;fill-opacity:1;fill-rule:nonzero;stroke:none" id="path42"/>
      </g>
    </g>
  </g>
</svg>