<?xml version="1.0" encoding="utf-8"?>
<!-- Uploaded to: SVG Repo, www.svgrepo.com, Generator: SVG Repo Mixer Tools -->
<svg fill="#000000" width="800px" height="800px" viewBox="-7 0 32 32" version="1.1" xmlns="http://www.w3.org/2000/svg">
<title>meal</title>
<path d="M6.281 12.906v-7.313h2.094v8.375c0 1.156-0.938 2.125-2.094 2.125v9.25c0 0.563-0.469 1.063-1.063 1.063h-2.094c-0.563 0-1.031-0.5-1.031-1.063v-9.25c-1.156 0-2.094-0.969-2.094-2.125v-8.375h2.094v7.313h1.031v-7.313h2.094v7.313h1.063zM11.531 16.094v-7.375c0-1.719 1.406-3.125 3.125-3.125s3.125 1.406 3.125 3.125v16.625c0 0.563-0.438 1.063-1 1.063h-2.125c-0.563 0-1.063-0.5-1.063-1.063v-9.25h-2.063z"></path>
</svg>